<svg class="logo-base" viewBox="0 0 64 64" fill="none" xmlns="http://www.w3.org/2000/svg">
	<rect width="64" height="64" rx="16" fill="#eaeaea"/>
	<path d="M55.2572 15.9425C50.9725 13.6864 45.4849 11.7215 40.4814 9.51592C40.318 9.44274 40.2037 9.39225 40.1402 9.40048C37.8297 8.48959 35.3287 7.99834 32.7245 8C31.3994 8 30.1473 8.07163 28.9602 8.20987C26.1608 8.53685 23.7218 9.25255 21.6254 10.3309C17.1647 12.2176 12.4928 13.9678 8.74283 15.9425C6.1101 17.3283 5.86726 19.9178 6.045 21.019C6.52113 23.9794 8.49522 31.7414 8.90147 33.2867C9.2474 34.6059 10.6741 35.5948 12.3959 35.829C13.3734 41.1919 15.8665 45.9171 19.3736 49.3492C21.1652 51.0994 23.2234 52.5129 25.4769 53.4889C27.7288 54.4648 30.1774 55.0016 32.7244 55C35.6253 55.0017 38.3976 54.3038 40.9002 53.0562C44.6565 51.1824 47.8082 48.0805 50.0203 44.2206C51.5295 41.5889 52.6039 38.5975 53.1355 35.3883C54.1257 34.9296 54.8637 34.1846 55.0985 33.2867C55.5047 31.7414 57.4789 23.9794 57.955 21.019C58.1328 19.9178 57.89 17.3283 55.2572 15.9425ZM44.8724 45.4616C43.2934 47.3224 41.4255 48.814 39.3721 49.8371C37.3186 50.8619 35.0827 51.4214 32.7245 51.4214C30.6551 51.4214 28.6778 50.9888 26.8354 50.1917C24.9946 49.3947 23.2886 48.23 21.7827 46.7596H21.7843C21.3526 46.3399 20.9416 45.8909 20.5464 45.4209C20.556 45.4307 20.567 45.4421 20.5782 45.4518C29.4301 40.7835 37.1521 31.8195 36.5935 21.6989C36.3205 16.7882 34.191 13.6294 31.6502 11.5978C32.0026 11.5865 32.358 11.5783 32.7246 11.5783C35.1224 11.5799 37.3902 12.0663 39.45 12.969C40.2752 13.3301 41.0655 13.7595 41.8193 14.2508C42.4605 16.0433 43.2857 18.462 44.3076 21.7232C42.8666 31.164 46.177 34.975 49.5143 35.733C48.7334 39.4969 47.0926 42.8461 44.8724 45.4616Z" fill="#000"/>
	<path d="M33.1021 40.0451C30.517 40.0451 28.4207 41.7921 28.4207 43.9489C28.4207 46.1058 30.517 47.8527 33.1021 47.8527C35.6872 47.8527 37.7836 46.1058 37.7836 43.9489C37.7836 41.7921 35.6872 40.0451 33.1021 40.0451Z" fill="#000"/>
</svg>
