<svg viewBox="0 0 272 272" fill="none" xmlns="http://www.w3.org/2000/svg">
	<rect x="16" y="16" width="240" height="240" rx="48" fill="#EAEAEA"/>
	<path d="M223.215 75.7844C207.147 67.3241 186.568 59.9557 167.805 51.6847C167.192 51.4103 166.764 51.2209 166.526 51.2518C157.861 47.836 148.483 45.9938 138.717 46C133.748 46 129.052 46.2686 124.601 46.787C114.103 48.0132 104.957 50.6971 97.0954 54.741C80.3675 61.8158 62.8478 68.3793 48.7856 75.7844C38.9129 80.9811 38.0022 90.6918 38.6688 94.8212C40.4542 105.923 47.8571 135.03 49.3805 140.825C50.6777 145.772 56.0277 149.481 62.4845 150.359C66.1503 170.47 75.4993 188.189 88.6509 201.059C95.3697 207.623 103.088 212.923 111.538 216.583C119.983 220.243 129.165 222.256 138.716 222.25C149.595 222.256 159.991 219.639 169.376 214.961C183.462 207.934 195.281 196.302 203.576 181.827C209.235 171.958 213.265 160.741 215.258 148.706C218.971 146.986 221.739 144.192 222.619 140.825C224.143 135.03 231.546 105.923 233.331 94.8212C233.998 90.6918 233.087 80.9811 223.215 75.7844ZM184.271 186.481C178.35 193.459 171.346 199.052 163.645 202.889C155.945 206.732 147.56 208.83 138.717 208.83C130.957 208.83 123.542 207.208 116.633 204.219C109.73 201.23 103.332 196.862 97.6849 191.348H97.691C96.0724 189.775 94.531 188.091 93.0491 186.328C93.0849 186.365 93.1264 186.408 93.1683 186.444C126.363 168.938 155.321 135.323 153.226 97.3708C152.202 78.9558 144.216 67.1102 134.688 59.4919C136.01 59.4494 137.343 59.4185 138.717 59.4185C147.709 59.4248 156.213 61.2486 163.938 64.6336C167.032 65.9878 169.996 67.5981 172.822 69.4403C175.227 76.1623 178.321 85.2324 182.153 97.4622C176.75 132.865 189.164 147.156 201.679 149.999C198.75 164.114 192.597 176.673 184.271 186.481Z" fill="black"/>
	<path d="M140.133 166.169C130.439 166.169 122.577 172.72 122.577 180.809C122.577 188.897 130.439 195.448 140.133 195.448C149.827 195.448 157.688 188.897 157.688 180.809C157.688 172.72 149.827 166.169 140.133 166.169Z" fill="black"/>
	<path d="M113.5 136C113.5 140.142 110.142 143.5 106 143.5C101.858 143.5 98.5 140.142 98.5 136C98.5 131.858 101.858 128.5 106 128.5C110.142 128.5 113.5 131.858 113.5 136Z" fill="#D9D9D9"/>
	<path fill-rule="evenodd" clip-rule="evenodd" d="M123.626 91.1451C74.4192 93.283 53.2115 108.461 57.8802 138.199C59.5396 148.768 63.8823 156.297 71.0697 161.065C83.3362 169.204 108.309 166.889 126.625 156.625C139.629 149.338 141.624 150.117 152.875 156.689C163.103 162.663 168.216 164.859 180.971 164.877C205.132 164.913 218.421 152.029 218.5 128.492C218.577 105.431 201.983 94.0554 164.416 91.4167C159.04 91.0394 130.448 90.849 123.626 91.1451Z" fill="url(#paint0_linear_71_211)" stroke="black" stroke-width="10"/>
	<defs>
		<linearGradient id="paint0_linear_71_211" x1="57.25" y1="91" x2="211.976" y2="177.919" gradientUnits="userSpaceOnUse">
			<stop stop-color="#FAFA00"/>
			<stop offset="1" stop-color="#0101FF"/>
		</linearGradient>
	</defs>
</svg>
