<?xml version="1.0" standalone="no"?>
<!DOCTYPE svg PUBLIC "-//W3C//DTD SVG 20010904//EN"
 "http://www.w3.org/TR/2001/REC-SVG-20010904/DTD/svg10.dtd">
<svg version="1.0" xmlns="http://www.w3.org/2000/svg"
 width="700.000000pt" height="700.000000pt" viewBox="0 0 700.000000 700.000000"
 preserveAspectRatio="xMidYMid meet">
<metadata>
Created by potrace 1.14, written by Peter Selinger 2001-2017
</metadata>
<g transform="translate(0.000000,700.000000) scale(0.100000,-0.100000)"
fill="#000000" stroke="none">
<path d="M3390 6120 c-346 -17 -680 -91 -920 -202 -47 -22 -263 -113 -480
-203 -537 -222 -673 -281 -895 -390 -207 -101 -289 -163 -355 -265 -85 -132
-99 -272 -50 -510 69 -342 279 -1200 307 -1253 9 -18 40 -55 70 -84 31 -30 60
-70 68 -93 48 -135 136 -270 249 -379 72 -69 79 -80 112 -170 54 -145 183
-402 271 -536 302 -459 714 -789 1181 -945 559 -187 1146 -122 1667 184 492
290 910 838 1096 1439 27 86 40 110 88 167 101 121 172 259 214 415 70 257
265 1084 306 1299 50 257 3 429 -155 576 -98 90 -365 219 -989 477 -192 79
-446 185 -563 234 -490 207 -766 261 -1222 239z m509 -414 c112 -21 249 -59
346 -96 84 -33 277 -131 312 -159 14 -11 49 -99 107 -270 48 -140 85 -255 83
-257 -2 -2 -51 2 -108 10 -170 24 -350 36 -523 36 l-164 0 -27 87 c-66 213
-181 400 -347 567 l-109 109 173 -6 c95 -3 211 -12 257 -21z m121 -1073 c0 -5
-200 -363 -444 -798 l-443 -790 -112 -57 c-344 -174 -837 -242 -1141 -157
-257 71 -410 250 -483 563 -16 72 -21 125 -21 256 -1 186 13 250 82 385 49 95
197 243 305 304 274 154 656 250 1152 290 136 10 1105 14 1105 4z m-320 -1768
c24 -8 109 -53 189 -99 358 -205 507 -254 826 -271 129 -7 324 6 438 30 39 8
73 13 75 10 6 -5 -89 -181 -146 -270 -131 -204 -350 -438 -530 -565 -309 -218
-620 -320 -978 -320 -470 0 -914 205 -1263 581 l-61 66 103 58 c224 125 493
320 697 505 71 64 114 91 263 169 97 51 194 98 215 106 50 18 120 18 172 0z"/>
<path d="M3472 2600 c-103 -27 -182 -73 -247 -141 -70 -73 -106 -150 -113
-239 -17 -248 209 -450 505 -450 54 0 122 7 157 16 138 35 265 134 322 249 26
54 29 70 29 155 0 86 -3 101 -31 160 -76 158 -243 258 -449 266 -78 3 -116 0
-173 -16z"/>
</g>
</svg>
